<svg xmlns="http://www.w3.org/2000/svg" xmlns:xlink="http://www.w3.org/1999/xlink" width="111" height="66" viewBox="0 0 111 66">
  <defs>
    <clipPath id="clip-path">
      <rect width="111" height="66" fill="none"/>
    </clipPath>
  </defs>
  <g id="Repeat_Grid_2" data-name="Repeat Grid 2" opacity="0.178" clip-path="url(#clip-path)">
    <g transform="translate(-204 -476)">
      <circle id="Ellipse_1" data-name="Ellipse 1" cx="3" cy="3" r="3" transform="translate(204 476)" fill="#fff"/>
    </g>
    <g transform="translate(-185 -476)">
      <circle id="Ellipse_1-2" data-name="Ellipse 1" cx="3" cy="3" r="3" transform="translate(204 476)" fill="#fff"/>
    </g>
    <g transform="translate(-166 -476)">
      <circle id="Ellipse_1-3" data-name="Ellipse 1" cx="3" cy="3" r="3" transform="translate(204 476)" fill="#fff"/>
    </g>
    <g transform="translate(-147 -476)">
      <circle id="Ellipse_1-4" data-name="Ellipse 1" cx="3" cy="3" r="3" transform="translate(204 476)" fill="#fff"/>
    </g>
    <g transform="translate(-128 -476)">
      <circle id="Ellipse_1-5" data-name="Ellipse 1" cx="3" cy="3" r="3" transform="translate(204 476)" fill="#fff"/>
    </g>
    <g transform="translate(-109 -476)">
      <circle id="Ellipse_1-6" data-name="Ellipse 1" cx="3" cy="3" r="3" transform="translate(204 476)" fill="#fff"/>
    </g>
    <g transform="translate(-204 -459)">
      <circle id="Ellipse_1-7" data-name="Ellipse 1" cx="3" cy="3" r="3" transform="translate(204 476)" fill="#fff"/>
    </g>
    <g transform="translate(-185 -459)">
      <circle id="Ellipse_1-8" data-name="Ellipse 1" cx="3" cy="3" r="3" transform="translate(204 476)" fill="#fff"/>
    </g>
    <g transform="translate(-166 -459)">
      <circle id="Ellipse_1-9" data-name="Ellipse 1" cx="3" cy="3" r="3" transform="translate(204 476)" fill="#fff"/>
    </g>
    <g transform="translate(-147 -459)">
      <circle id="Ellipse_1-10" data-name="Ellipse 1" cx="3" cy="3" r="3" transform="translate(204 476)" fill="#fff"/>
    </g>
    <g transform="translate(-128 -459)">
      <circle id="Ellipse_1-11" data-name="Ellipse 1" cx="3" cy="3" r="3" transform="translate(204 476)" fill="#fff"/>
    </g>
    <g transform="translate(-109 -459)">
      <circle id="Ellipse_1-12" data-name="Ellipse 1" cx="3" cy="3" r="3" transform="translate(204 476)" fill="#fff"/>
    </g>
    <g transform="translate(-204 -442)">
      <circle id="Ellipse_1-13" data-name="Ellipse 1" cx="3" cy="3" r="3" transform="translate(204 476)" fill="#fff"/>
    </g>
    <g transform="translate(-185 -442)">
      <circle id="Ellipse_1-14" data-name="Ellipse 1" cx="3" cy="3" r="3" transform="translate(204 476)" fill="#fff"/>
    </g>
    <g transform="translate(-166 -442)">
      <circle id="Ellipse_1-15" data-name="Ellipse 1" cx="3" cy="3" r="3" transform="translate(204 476)" fill="#fff"/>
    </g>
    <g transform="translate(-147 -442)">
      <circle id="Ellipse_1-16" data-name="Ellipse 1" cx="3" cy="3" r="3" transform="translate(204 476)" fill="#fff"/>
    </g>
    <g transform="translate(-128 -442)">
      <circle id="Ellipse_1-17" data-name="Ellipse 1" cx="3" cy="3" r="3" transform="translate(204 476)" fill="#fff"/>
    </g>
    <g transform="translate(-109 -442)">
      <circle id="Ellipse_1-18" data-name="Ellipse 1" cx="3" cy="3" r="3" transform="translate(204 476)" fill="#fff"/>
    </g>
    <g transform="translate(-204 -425)">
      <circle id="Ellipse_1-19" data-name="Ellipse 1" cx="3" cy="3" r="3" transform="translate(204 476)" fill="#fff"/>
    </g>
    <g transform="translate(-185 -425)">
      <circle id="Ellipse_1-20" data-name="Ellipse 1" cx="3" cy="3" r="3" transform="translate(204 476)" fill="#fff"/>
    </g>
    <g transform="translate(-166 -425)">
      <circle id="Ellipse_1-21" data-name="Ellipse 1" cx="3" cy="3" r="3" transform="translate(204 476)" fill="#fff"/>
    </g>
    <g transform="translate(-147 -425)">
      <circle id="Ellipse_1-22" data-name="Ellipse 1" cx="3" cy="3" r="3" transform="translate(204 476)" fill="#fff"/>
    </g>
    <g transform="translate(-128 -425)">
      <circle id="Ellipse_1-23" data-name="Ellipse 1" cx="3" cy="3" r="3" transform="translate(204 476)" fill="#fff"/>
    </g>
    <g transform="translate(-109 -425)">
      <circle id="Ellipse_1-24" data-name="Ellipse 1" cx="3" cy="3" r="3" transform="translate(204 476)" fill="#fff"/>
    </g>
  </g>
</svg>
