<svg xmlns="http://www.w3.org/2000/svg" xmlns:xlink="http://www.w3.org/1999/xlink" width="160" height="162" viewBox="0 0 160 162">
  <defs>
    <clipPath id="clip-path">
      <rect width="160" height="162" fill="none"/>
    </clipPath>
  </defs>
  <g id="Repeat_Grid_6" data-name="Repeat Grid 6" opacity="0.566" clip-path="url(#clip-path)">
    <g transform="translate(-204 -476)">
      <circle id="Ellipse_1" data-name="Ellipse 1" cx="3" cy="3" r="3" transform="translate(204 476)" fill="#dddde3"/>
    </g>
    <g transform="translate(-185 -476)">
      <circle id="Ellipse_1-2" data-name="Ellipse 1" cx="3" cy="3" r="3" transform="translate(204 476)" fill="#dddde3"/>
    </g>
    <g transform="translate(-166 -476)">
      <circle id="Ellipse_1-3" data-name="Ellipse 1" cx="3" cy="3" r="3" transform="translate(204 476)" fill="#dddde3"/>
    </g>
    <g transform="translate(-147 -476)">
      <circle id="Ellipse_1-4" data-name="Ellipse 1" cx="3" cy="3" r="3" transform="translate(204 476)" fill="#dddde3"/>
    </g>
    <g transform="translate(-128 -476)">
      <circle id="Ellipse_1-5" data-name="Ellipse 1" cx="3" cy="3" r="3" transform="translate(204 476)" fill="#dddde3"/>
    </g>
    <g transform="translate(-109 -476)">
      <circle id="Ellipse_1-6" data-name="Ellipse 1" cx="3" cy="3" r="3" transform="translate(204 476)" fill="#dddde3"/>
    </g>
    <g transform="translate(-90 -476)">
      <circle id="Ellipse_1-7" data-name="Ellipse 1" cx="3" cy="3" r="3" transform="translate(204 476)" fill="#dddde3"/>
    </g>
    <g transform="translate(-71 -476)">
      <circle id="Ellipse_1-8" data-name="Ellipse 1" cx="3" cy="3" r="3" transform="translate(204 476)" fill="#dddde3"/>
    </g>
    <g transform="translate(-52 -476)">
      <circle id="Ellipse_1-9" data-name="Ellipse 1" cx="3" cy="3" r="3" transform="translate(204 476)" fill="#dddde3"/>
    </g>
    <g transform="translate(-204 -459)">
      <circle id="Ellipse_1-10" data-name="Ellipse 1" cx="3" cy="3" r="3" transform="translate(204 476)" fill="#dddde3"/>
    </g>
    <g transform="translate(-185 -459)">
      <circle id="Ellipse_1-11" data-name="Ellipse 1" cx="3" cy="3" r="3" transform="translate(204 476)" fill="#dddde3"/>
    </g>
    <g transform="translate(-166 -459)">
      <circle id="Ellipse_1-12" data-name="Ellipse 1" cx="3" cy="3" r="3" transform="translate(204 476)" fill="#dddde3"/>
    </g>
    <g transform="translate(-147 -459)">
      <circle id="Ellipse_1-13" data-name="Ellipse 1" cx="3" cy="3" r="3" transform="translate(204 476)" fill="#dddde3"/>
    </g>
    <g transform="translate(-128 -459)">
      <circle id="Ellipse_1-14" data-name="Ellipse 1" cx="3" cy="3" r="3" transform="translate(204 476)" fill="#dddde3"/>
    </g>
    <g transform="translate(-109 -459)">
      <circle id="Ellipse_1-15" data-name="Ellipse 1" cx="3" cy="3" r="3" transform="translate(204 476)" fill="#dddde3"/>
    </g>
    <g transform="translate(-90 -459)">
      <circle id="Ellipse_1-16" data-name="Ellipse 1" cx="3" cy="3" r="3" transform="translate(204 476)" fill="#dddde3"/>
    </g>
    <g transform="translate(-71 -459)">
      <circle id="Ellipse_1-17" data-name="Ellipse 1" cx="3" cy="3" r="3" transform="translate(204 476)" fill="#dddde3"/>
    </g>
    <g transform="translate(-52 -459)">
      <circle id="Ellipse_1-18" data-name="Ellipse 1" cx="3" cy="3" r="3" transform="translate(204 476)" fill="#dddde3"/>
    </g>
    <g transform="translate(-204 -442)">
      <circle id="Ellipse_1-19" data-name="Ellipse 1" cx="3" cy="3" r="3" transform="translate(204 476)" fill="#dddde3"/>
    </g>
    <g transform="translate(-185 -442)">
      <circle id="Ellipse_1-20" data-name="Ellipse 1" cx="3" cy="3" r="3" transform="translate(204 476)" fill="#dddde3"/>
    </g>
    <g transform="translate(-166 -442)">
      <circle id="Ellipse_1-21" data-name="Ellipse 1" cx="3" cy="3" r="3" transform="translate(204 476)" fill="#dddde3"/>
    </g>
    <g transform="translate(-147 -442)">
      <circle id="Ellipse_1-22" data-name="Ellipse 1" cx="3" cy="3" r="3" transform="translate(204 476)" fill="#dddde3"/>
    </g>
    <g transform="translate(-128 -442)">
      <circle id="Ellipse_1-23" data-name="Ellipse 1" cx="3" cy="3" r="3" transform="translate(204 476)" fill="#dddde3"/>
    </g>
    <g transform="translate(-109 -442)">
      <circle id="Ellipse_1-24" data-name="Ellipse 1" cx="3" cy="3" r="3" transform="translate(204 476)" fill="#dddde3"/>
    </g>
    <g transform="translate(-90 -442)">
      <circle id="Ellipse_1-25" data-name="Ellipse 1" cx="3" cy="3" r="3" transform="translate(204 476)" fill="#dddde3"/>
    </g>
    <g transform="translate(-71 -442)">
      <circle id="Ellipse_1-26" data-name="Ellipse 1" cx="3" cy="3" r="3" transform="translate(204 476)" fill="#dddde3"/>
    </g>
    <g transform="translate(-52 -442)">
      <circle id="Ellipse_1-27" data-name="Ellipse 1" cx="3" cy="3" r="3" transform="translate(204 476)" fill="#dddde3"/>
    </g>
    <g transform="translate(-204 -425)">
      <circle id="Ellipse_1-28" data-name="Ellipse 1" cx="3" cy="3" r="3" transform="translate(204 476)" fill="#dddde3"/>
    </g>
    <g transform="translate(-185 -425)">
      <circle id="Ellipse_1-29" data-name="Ellipse 1" cx="3" cy="3" r="3" transform="translate(204 476)" fill="#dddde3"/>
    </g>
    <g transform="translate(-166 -425)">
      <circle id="Ellipse_1-30" data-name="Ellipse 1" cx="3" cy="3" r="3" transform="translate(204 476)" fill="#dddde3"/>
    </g>
    <g transform="translate(-147 -425)">
      <circle id="Ellipse_1-31" data-name="Ellipse 1" cx="3" cy="3" r="3" transform="translate(204 476)" fill="#dddde3"/>
    </g>
    <g transform="translate(-128 -425)">
      <circle id="Ellipse_1-32" data-name="Ellipse 1" cx="3" cy="3" r="3" transform="translate(204 476)" fill="#dddde3"/>
    </g>
    <g transform="translate(-109 -425)">
      <circle id="Ellipse_1-33" data-name="Ellipse 1" cx="3" cy="3" r="3" transform="translate(204 476)" fill="#dddde3"/>
    </g>
    <g transform="translate(-90 -425)">
      <circle id="Ellipse_1-34" data-name="Ellipse 1" cx="3" cy="3" r="3" transform="translate(204 476)" fill="#dddde3"/>
    </g>
    <g transform="translate(-71 -425)">
      <circle id="Ellipse_1-35" data-name="Ellipse 1" cx="3" cy="3" r="3" transform="translate(204 476)" fill="#dddde3"/>
    </g>
    <g transform="translate(-52 -425)">
      <circle id="Ellipse_1-36" data-name="Ellipse 1" cx="3" cy="3" r="3" transform="translate(204 476)" fill="#dddde3"/>
    </g>
    <g transform="translate(-204 -408)">
      <circle id="Ellipse_1-37" data-name="Ellipse 1" cx="3" cy="3" r="3" transform="translate(204 476)" fill="#dddde3"/>
    </g>
    <g transform="translate(-185 -408)">
      <circle id="Ellipse_1-38" data-name="Ellipse 1" cx="3" cy="3" r="3" transform="translate(204 476)" fill="#dddde3"/>
    </g>
    <g transform="translate(-166 -408)">
      <circle id="Ellipse_1-39" data-name="Ellipse 1" cx="3" cy="3" r="3" transform="translate(204 476)" fill="#dddde3"/>
    </g>
    <g transform="translate(-147 -408)">
      <circle id="Ellipse_1-40" data-name="Ellipse 1" cx="3" cy="3" r="3" transform="translate(204 476)" fill="#dddde3"/>
    </g>
    <g transform="translate(-128 -408)">
      <circle id="Ellipse_1-41" data-name="Ellipse 1" cx="3" cy="3" r="3" transform="translate(204 476)" fill="#dddde3"/>
    </g>
    <g transform="translate(-109 -408)">
      <circle id="Ellipse_1-42" data-name="Ellipse 1" cx="3" cy="3" r="3" transform="translate(204 476)" fill="#dddde3"/>
    </g>
    <g transform="translate(-90 -408)">
      <circle id="Ellipse_1-43" data-name="Ellipse 1" cx="3" cy="3" r="3" transform="translate(204 476)" fill="#dddde3"/>
    </g>
    <g transform="translate(-71 -408)">
      <circle id="Ellipse_1-44" data-name="Ellipse 1" cx="3" cy="3" r="3" transform="translate(204 476)" fill="#dddde3"/>
    </g>
    <g transform="translate(-52 -408)">
      <circle id="Ellipse_1-45" data-name="Ellipse 1" cx="3" cy="3" r="3" transform="translate(204 476)" fill="#dddde3"/>
    </g>
    <g transform="translate(-204 -391)">
      <circle id="Ellipse_1-46" data-name="Ellipse 1" cx="3" cy="3" r="3" transform="translate(204 476)" fill="#dddde3"/>
    </g>
    <g transform="translate(-185 -391)">
      <circle id="Ellipse_1-47" data-name="Ellipse 1" cx="3" cy="3" r="3" transform="translate(204 476)" fill="#dddde3"/>
    </g>
    <g transform="translate(-166 -391)">
      <circle id="Ellipse_1-48" data-name="Ellipse 1" cx="3" cy="3" r="3" transform="translate(204 476)" fill="#dddde3"/>
    </g>
    <g transform="translate(-147 -391)">
      <circle id="Ellipse_1-49" data-name="Ellipse 1" cx="3" cy="3" r="3" transform="translate(204 476)" fill="#dddde3"/>
    </g>
    <g transform="translate(-128 -391)">
      <circle id="Ellipse_1-50" data-name="Ellipse 1" cx="3" cy="3" r="3" transform="translate(204 476)" fill="#dddde3"/>
    </g>
    <g transform="translate(-109 -391)">
      <circle id="Ellipse_1-51" data-name="Ellipse 1" cx="3" cy="3" r="3" transform="translate(204 476)" fill="#dddde3"/>
    </g>
    <g transform="translate(-90 -391)">
      <circle id="Ellipse_1-52" data-name="Ellipse 1" cx="3" cy="3" r="3" transform="translate(204 476)" fill="#dddde3"/>
    </g>
    <g transform="translate(-71 -391)">
      <circle id="Ellipse_1-53" data-name="Ellipse 1" cx="3" cy="3" r="3" transform="translate(204 476)" fill="#dddde3"/>
    </g>
    <g transform="translate(-52 -391)">
      <circle id="Ellipse_1-54" data-name="Ellipse 1" cx="3" cy="3" r="3" transform="translate(204 476)" fill="#dddde3"/>
    </g>
    <g transform="translate(-204 -374)">
      <circle id="Ellipse_1-55" data-name="Ellipse 1" cx="3" cy="3" r="3" transform="translate(204 476)" fill="#dddde3"/>
    </g>
    <g transform="translate(-185 -374)">
      <circle id="Ellipse_1-56" data-name="Ellipse 1" cx="3" cy="3" r="3" transform="translate(204 476)" fill="#dddde3"/>
    </g>
    <g transform="translate(-166 -374)">
      <circle id="Ellipse_1-57" data-name="Ellipse 1" cx="3" cy="3" r="3" transform="translate(204 476)" fill="#dddde3"/>
    </g>
    <g transform="translate(-147 -374)">
      <circle id="Ellipse_1-58" data-name="Ellipse 1" cx="3" cy="3" r="3" transform="translate(204 476)" fill="#dddde3"/>
    </g>
    <g transform="translate(-128 -374)">
      <circle id="Ellipse_1-59" data-name="Ellipse 1" cx="3" cy="3" r="3" transform="translate(204 476)" fill="#dddde3"/>
    </g>
    <g transform="translate(-109 -374)">
      <circle id="Ellipse_1-60" data-name="Ellipse 1" cx="3" cy="3" r="3" transform="translate(204 476)" fill="#dddde3"/>
    </g>
    <g transform="translate(-90 -374)">
      <circle id="Ellipse_1-61" data-name="Ellipse 1" cx="3" cy="3" r="3" transform="translate(204 476)" fill="#dddde3"/>
    </g>
    <g transform="translate(-71 -374)">
      <circle id="Ellipse_1-62" data-name="Ellipse 1" cx="3" cy="3" r="3" transform="translate(204 476)" fill="#dddde3"/>
    </g>
    <g transform="translate(-52 -374)">
      <circle id="Ellipse_1-63" data-name="Ellipse 1" cx="3" cy="3" r="3" transform="translate(204 476)" fill="#dddde3"/>
    </g>
    <g transform="translate(-204 -357)">
      <circle id="Ellipse_1-64" data-name="Ellipse 1" cx="3" cy="3" r="3" transform="translate(204 476)" fill="#dddde3"/>
    </g>
    <g transform="translate(-185 -357)">
      <circle id="Ellipse_1-65" data-name="Ellipse 1" cx="3" cy="3" r="3" transform="translate(204 476)" fill="#dddde3"/>
    </g>
    <g transform="translate(-166 -357)">
      <circle id="Ellipse_1-66" data-name="Ellipse 1" cx="3" cy="3" r="3" transform="translate(204 476)" fill="#dddde3"/>
    </g>
    <g transform="translate(-147 -357)">
      <circle id="Ellipse_1-67" data-name="Ellipse 1" cx="3" cy="3" r="3" transform="translate(204 476)" fill="#dddde3"/>
    </g>
    <g transform="translate(-128 -357)">
      <circle id="Ellipse_1-68" data-name="Ellipse 1" cx="3" cy="3" r="3" transform="translate(204 476)" fill="#dddde3"/>
    </g>
    <g transform="translate(-109 -357)">
      <circle id="Ellipse_1-69" data-name="Ellipse 1" cx="3" cy="3" r="3" transform="translate(204 476)" fill="#dddde3"/>
    </g>
    <g transform="translate(-90 -357)">
      <circle id="Ellipse_1-70" data-name="Ellipse 1" cx="3" cy="3" r="3" transform="translate(204 476)" fill="#dddde3"/>
    </g>
    <g transform="translate(-71 -357)">
      <circle id="Ellipse_1-71" data-name="Ellipse 1" cx="3" cy="3" r="3" transform="translate(204 476)" fill="#dddde3"/>
    </g>
    <g transform="translate(-52 -357)">
      <circle id="Ellipse_1-72" data-name="Ellipse 1" cx="3" cy="3" r="3" transform="translate(204 476)" fill="#dddde3"/>
    </g>
    <g transform="translate(-204 -340)">
      <circle id="Ellipse_1-73" data-name="Ellipse 1" cx="3" cy="3" r="3" transform="translate(204 476)" fill="#dddde3"/>
    </g>
    <g transform="translate(-185 -340)">
      <circle id="Ellipse_1-74" data-name="Ellipse 1" cx="3" cy="3" r="3" transform="translate(204 476)" fill="#dddde3"/>
    </g>
    <g transform="translate(-166 -340)">
      <circle id="Ellipse_1-75" data-name="Ellipse 1" cx="3" cy="3" r="3" transform="translate(204 476)" fill="#dddde3"/>
    </g>
    <g transform="translate(-147 -340)">
      <circle id="Ellipse_1-76" data-name="Ellipse 1" cx="3" cy="3" r="3" transform="translate(204 476)" fill="#dddde3"/>
    </g>
    <g transform="translate(-128 -340)">
      <circle id="Ellipse_1-77" data-name="Ellipse 1" cx="3" cy="3" r="3" transform="translate(204 476)" fill="#dddde3"/>
    </g>
    <g transform="translate(-109 -340)">
      <circle id="Ellipse_1-78" data-name="Ellipse 1" cx="3" cy="3" r="3" transform="translate(204 476)" fill="#dddde3"/>
    </g>
    <g transform="translate(-90 -340)">
      <circle id="Ellipse_1-79" data-name="Ellipse 1" cx="3" cy="3" r="3" transform="translate(204 476)" fill="#dddde3"/>
    </g>
    <g transform="translate(-71 -340)">
      <circle id="Ellipse_1-80" data-name="Ellipse 1" cx="3" cy="3" r="3" transform="translate(204 476)" fill="#dddde3"/>
    </g>
    <g transform="translate(-52 -340)">
      <circle id="Ellipse_1-81" data-name="Ellipse 1" cx="3" cy="3" r="3" transform="translate(204 476)" fill="#dddde3"/>
    </g>
    <g transform="translate(-204 -323)">
      <circle id="Ellipse_1-82" data-name="Ellipse 1" cx="3" cy="3" r="3" transform="translate(204 476)" fill="#dddde3"/>
    </g>
    <g transform="translate(-185 -323)">
      <circle id="Ellipse_1-83" data-name="Ellipse 1" cx="3" cy="3" r="3" transform="translate(204 476)" fill="#dddde3"/>
    </g>
    <g transform="translate(-166 -323)">
      <circle id="Ellipse_1-84" data-name="Ellipse 1" cx="3" cy="3" r="3" transform="translate(204 476)" fill="#dddde3"/>
    </g>
    <g transform="translate(-147 -323)">
      <circle id="Ellipse_1-85" data-name="Ellipse 1" cx="3" cy="3" r="3" transform="translate(204 476)" fill="#dddde3"/>
    </g>
    <g transform="translate(-128 -323)">
      <circle id="Ellipse_1-86" data-name="Ellipse 1" cx="3" cy="3" r="3" transform="translate(204 476)" fill="#dddde3"/>
    </g>
    <g transform="translate(-109 -323)">
      <circle id="Ellipse_1-87" data-name="Ellipse 1" cx="3" cy="3" r="3" transform="translate(204 476)" fill="#dddde3"/>
    </g>
    <g transform="translate(-90 -323)">
      <circle id="Ellipse_1-88" data-name="Ellipse 1" cx="3" cy="3" r="3" transform="translate(204 476)" fill="#dddde3"/>
    </g>
    <g transform="translate(-71 -323)">
      <circle id="Ellipse_1-89" data-name="Ellipse 1" cx="3" cy="3" r="3" transform="translate(204 476)" fill="#dddde3"/>
    </g>
    <g transform="translate(-52 -323)">
      <circle id="Ellipse_1-90" data-name="Ellipse 1" cx="3" cy="3" r="3" transform="translate(204 476)" fill="#dddde3"/>
    </g>
  </g>
</svg>
