<svg xmlns="http://www.w3.org/2000/svg" xmlns:xlink="http://www.w3.org/1999/xlink" width="143" height="97" viewBox="0 0 143 97">
  <defs>
    <clipPath id="clip-path">
      <rect width="143" height="97" fill="none"/>
    </clipPath>
  </defs>
  <g id="Repeat_Grid_5" data-name="Repeat Grid 5" opacity="0.566" clip-path="url(#clip-path)">
    <g transform="translate(-204 -476)">
      <circle id="Ellipse_1" data-name="Ellipse 1" cx="3" cy="3" r="3" transform="translate(204 476)" fill="#dddde3"/>
    </g>
    <g transform="translate(-185 -476)">
      <circle id="Ellipse_1-2" data-name="Ellipse 1" cx="3" cy="3" r="3" transform="translate(204 476)" fill="#dddde3"/>
    </g>
    <g transform="translate(-166 -476)">
      <circle id="Ellipse_1-3" data-name="Ellipse 1" cx="3" cy="3" r="3" transform="translate(204 476)" fill="#dddde3"/>
    </g>
    <g transform="translate(-147 -476)">
      <circle id="Ellipse_1-4" data-name="Ellipse 1" cx="3" cy="3" r="3" transform="translate(204 476)" fill="#dddde3"/>
    </g>
    <g transform="translate(-128 -476)">
      <circle id="Ellipse_1-5" data-name="Ellipse 1" cx="3" cy="3" r="3" transform="translate(204 476)" fill="#dddde3"/>
    </g>
    <g transform="translate(-109 -476)">
      <circle id="Ellipse_1-6" data-name="Ellipse 1" cx="3" cy="3" r="3" transform="translate(204 476)" fill="#dddde3"/>
    </g>
    <g transform="translate(-90 -476)">
      <circle id="Ellipse_1-7" data-name="Ellipse 1" cx="3" cy="3" r="3" transform="translate(204 476)" fill="#dddde3"/>
    </g>
    <g transform="translate(-71 -476)">
      <circle id="Ellipse_1-8" data-name="Ellipse 1" cx="3" cy="3" r="3" transform="translate(204 476)" fill="#dddde3"/>
    </g>
    <g transform="translate(-204 -459)">
      <circle id="Ellipse_1-9" data-name="Ellipse 1" cx="3" cy="3" r="3" transform="translate(204 476)" fill="#dddde3"/>
    </g>
    <g transform="translate(-185 -459)">
      <circle id="Ellipse_1-10" data-name="Ellipse 1" cx="3" cy="3" r="3" transform="translate(204 476)" fill="#dddde3"/>
    </g>
    <g transform="translate(-166 -459)">
      <circle id="Ellipse_1-11" data-name="Ellipse 1" cx="3" cy="3" r="3" transform="translate(204 476)" fill="#dddde3"/>
    </g>
    <g transform="translate(-147 -459)">
      <circle id="Ellipse_1-12" data-name="Ellipse 1" cx="3" cy="3" r="3" transform="translate(204 476)" fill="#dddde3"/>
    </g>
    <g transform="translate(-128 -459)">
      <circle id="Ellipse_1-13" data-name="Ellipse 1" cx="3" cy="3" r="3" transform="translate(204 476)" fill="#dddde3"/>
    </g>
    <g transform="translate(-109 -459)">
      <circle id="Ellipse_1-14" data-name="Ellipse 1" cx="3" cy="3" r="3" transform="translate(204 476)" fill="#dddde3"/>
    </g>
    <g transform="translate(-90 -459)">
      <circle id="Ellipse_1-15" data-name="Ellipse 1" cx="3" cy="3" r="3" transform="translate(204 476)" fill="#dddde3"/>
    </g>
    <g transform="translate(-71 -459)">
      <circle id="Ellipse_1-16" data-name="Ellipse 1" cx="3" cy="3" r="3" transform="translate(204 476)" fill="#dddde3"/>
    </g>
    <g transform="translate(-204 -442)">
      <circle id="Ellipse_1-17" data-name="Ellipse 1" cx="3" cy="3" r="3" transform="translate(204 476)" fill="#dddde3"/>
    </g>
    <g transform="translate(-185 -442)">
      <circle id="Ellipse_1-18" data-name="Ellipse 1" cx="3" cy="3" r="3" transform="translate(204 476)" fill="#dddde3"/>
    </g>
    <g transform="translate(-166 -442)">
      <circle id="Ellipse_1-19" data-name="Ellipse 1" cx="3" cy="3" r="3" transform="translate(204 476)" fill="#dddde3"/>
    </g>
    <g transform="translate(-147 -442)">
      <circle id="Ellipse_1-20" data-name="Ellipse 1" cx="3" cy="3" r="3" transform="translate(204 476)" fill="#dddde3"/>
    </g>
    <g transform="translate(-128 -442)">
      <circle id="Ellipse_1-21" data-name="Ellipse 1" cx="3" cy="3" r="3" transform="translate(204 476)" fill="#dddde3"/>
    </g>
    <g transform="translate(-109 -442)">
      <circle id="Ellipse_1-22" data-name="Ellipse 1" cx="3" cy="3" r="3" transform="translate(204 476)" fill="#dddde3"/>
    </g>
    <g transform="translate(-90 -442)">
      <circle id="Ellipse_1-23" data-name="Ellipse 1" cx="3" cy="3" r="3" transform="translate(204 476)" fill="#dddde3"/>
    </g>
    <g transform="translate(-71 -442)">
      <circle id="Ellipse_1-24" data-name="Ellipse 1" cx="3" cy="3" r="3" transform="translate(204 476)" fill="#dddde3"/>
    </g>
    <g transform="translate(-204 -425)">
      <circle id="Ellipse_1-25" data-name="Ellipse 1" cx="3" cy="3" r="3" transform="translate(204 476)" fill="#dddde3"/>
    </g>
    <g transform="translate(-185 -425)">
      <circle id="Ellipse_1-26" data-name="Ellipse 1" cx="3" cy="3" r="3" transform="translate(204 476)" fill="#dddde3"/>
    </g>
    <g transform="translate(-166 -425)">
      <circle id="Ellipse_1-27" data-name="Ellipse 1" cx="3" cy="3" r="3" transform="translate(204 476)" fill="#dddde3"/>
    </g>
    <g transform="translate(-147 -425)">
      <circle id="Ellipse_1-28" data-name="Ellipse 1" cx="3" cy="3" r="3" transform="translate(204 476)" fill="#dddde3"/>
    </g>
    <g transform="translate(-128 -425)">
      <circle id="Ellipse_1-29" data-name="Ellipse 1" cx="3" cy="3" r="3" transform="translate(204 476)" fill="#dddde3"/>
    </g>
    <g transform="translate(-109 -425)">
      <circle id="Ellipse_1-30" data-name="Ellipse 1" cx="3" cy="3" r="3" transform="translate(204 476)" fill="#dddde3"/>
    </g>
    <g transform="translate(-90 -425)">
      <circle id="Ellipse_1-31" data-name="Ellipse 1" cx="3" cy="3" r="3" transform="translate(204 476)" fill="#dddde3"/>
    </g>
    <g transform="translate(-71 -425)">
      <circle id="Ellipse_1-32" data-name="Ellipse 1" cx="3" cy="3" r="3" transform="translate(204 476)" fill="#dddde3"/>
    </g>
    <g transform="translate(-204 -408)">
      <circle id="Ellipse_1-33" data-name="Ellipse 1" cx="3" cy="3" r="3" transform="translate(204 476)" fill="#dddde3"/>
    </g>
    <g transform="translate(-185 -408)">
      <circle id="Ellipse_1-34" data-name="Ellipse 1" cx="3" cy="3" r="3" transform="translate(204 476)" fill="#dddde3"/>
    </g>
    <g transform="translate(-166 -408)">
      <circle id="Ellipse_1-35" data-name="Ellipse 1" cx="3" cy="3" r="3" transform="translate(204 476)" fill="#dddde3"/>
    </g>
    <g transform="translate(-147 -408)">
      <circle id="Ellipse_1-36" data-name="Ellipse 1" cx="3" cy="3" r="3" transform="translate(204 476)" fill="#dddde3"/>
    </g>
    <g transform="translate(-128 -408)">
      <circle id="Ellipse_1-37" data-name="Ellipse 1" cx="3" cy="3" r="3" transform="translate(204 476)" fill="#dddde3"/>
    </g>
    <g transform="translate(-109 -408)">
      <circle id="Ellipse_1-38" data-name="Ellipse 1" cx="3" cy="3" r="3" transform="translate(204 476)" fill="#dddde3"/>
    </g>
    <g transform="translate(-90 -408)">
      <circle id="Ellipse_1-39" data-name="Ellipse 1" cx="3" cy="3" r="3" transform="translate(204 476)" fill="#dddde3"/>
    </g>
    <g transform="translate(-71 -408)">
      <circle id="Ellipse_1-40" data-name="Ellipse 1" cx="3" cy="3" r="3" transform="translate(204 476)" fill="#dddde3"/>
    </g>
    <g transform="translate(-204 -391)">
      <circle id="Ellipse_1-41" data-name="Ellipse 1" cx="3" cy="3" r="3" transform="translate(204 476)" fill="#dddde3"/>
    </g>
    <g transform="translate(-185 -391)">
      <circle id="Ellipse_1-42" data-name="Ellipse 1" cx="3" cy="3" r="3" transform="translate(204 476)" fill="#dddde3"/>
    </g>
    <g transform="translate(-166 -391)">
      <circle id="Ellipse_1-43" data-name="Ellipse 1" cx="3" cy="3" r="3" transform="translate(204 476)" fill="#dddde3"/>
    </g>
    <g transform="translate(-147 -391)">
      <circle id="Ellipse_1-44" data-name="Ellipse 1" cx="3" cy="3" r="3" transform="translate(204 476)" fill="#dddde3"/>
    </g>
    <g transform="translate(-128 -391)">
      <circle id="Ellipse_1-45" data-name="Ellipse 1" cx="3" cy="3" r="3" transform="translate(204 476)" fill="#dddde3"/>
    </g>
    <g transform="translate(-109 -391)">
      <circle id="Ellipse_1-46" data-name="Ellipse 1" cx="3" cy="3" r="3" transform="translate(204 476)" fill="#dddde3"/>
    </g>
    <g transform="translate(-90 -391)">
      <circle id="Ellipse_1-47" data-name="Ellipse 1" cx="3" cy="3" r="3" transform="translate(204 476)" fill="#dddde3"/>
    </g>
    <g transform="translate(-71 -391)">
      <circle id="Ellipse_1-48" data-name="Ellipse 1" cx="3" cy="3" r="3" transform="translate(204 476)" fill="#dddde3"/>
    </g>
  </g>
</svg>
